 <svg version="1.0" xmlns="http://www.w3.org/2000/svg" width="700.000000pt" height="393.000000pt" viewBox="0 0 700.000000 393.000000" preserveAspectRatio="xMidYMid meet">
<metadata>
Created by potrace 1.12, written by Peter Selinger 2001-2015
</metadata>
<g transform="translate(0.000000,393.000000) scale(0.100000,-0.100000)" fill="#000000de" stroke="none">
<path d="M6495 3557 c-26 -22 -28 -30 -32 -108 -2 -46 -10 -112 -18 -145 -8
-34 -15 -81 -14 -105 1 -54 -20 -269 -27 -281 -11 -17 -45 -160 -64 -263 -6
-33 -18 -79 -26 -102 -9 -23 -26 -90 -39 -150 -67 -317 -76 -347 -167 -537
-12 -27 -48 -76 -78 -108 -48 -51 -60 -59 -95 -61 -37 -2 -40 0 -43 26 -2 15
4 41 12 58 9 18 13 42 10 54 -5 20 1 26 40 44 58 25 59 44 6 116 -49 66 -48
66 -94 58 -31 -5 -40 -12 -55 -47 -10 -22 -22 -52 -26 -66 -4 -13 -17 -37 -28
-52 -16 -22 -20 -45 -23 -125 -1 -54 -3 -110 -3 -125 -1 -21 -6 -28 -21 -28
-12 0 -35 -21 -61 -56 -59 -81 -107 -125 -172 -159 -42 -22 -59 -27 -68 -18
-13 13 -89 229 -89 253 0 9 -9 33 -20 55 -23 45 -25 105 -8 217 13 90 4 122
-49 168 -42 37 -86 40 -107 8 -8 -13 -17 -52 -21 -88 -4 -36 -18 -100 -31
-144 -23 -75 -85 -199 -105 -212 -14 -8 -10 38 6 66 10 17 14 59 15 138 0 92
-4 120 -19 151 -25 48 -41 61 -85 68 -45 7 -76 -17 -76 -58 0 -15 -4 -31 -10
-34 -5 -3 -10 -13 -10 -20 0 -8 -18 -52 -39 -97 -77 -163 -91 -197 -91 -216 0
-11 -7 -39 -15 -62 -12 -35 -13 -49 -3 -76 17 -48 -7 -94 -69 -131 -44 -26
-56 -28 -139 -27 -76 2 -98 6 -143 29 -73 36 -119 71 -171 130 -57 64 -55 62
-111 70 -60 8 -111 -6 -157 -45 -20 -17 -64 -54 -97 -82 -62 -52 -101 -75
-111 -66 -3 3 0 25 6 49 7 24 12 59 12 78 0 19 7 46 16 59 17 26 51 119 52
140 0 17 73 230 102 297 51 120 69 161 80 180 28 50 88 173 88 182 0 6 13 39
29 74 16 35 32 79 36 97 4 19 21 64 39 100 18 37 38 87 45 112 7 25 17 59 22
75 25 72 31 116 26 200 -6 99 -25 154 -83 243 -34 51 -36 52 -83 52 -31 0 -53
-5 -61 -15 -7 -8 -16 -52 -21 -97 -4 -45 -13 -93 -18 -107 -13 -32 -30 -125
-39 -211 -4 -36 -12 -72 -17 -80 -5 -8 -13 -37 -17 -65 -4 -27 -12 -71 -17
-97 -6 -27 -15 -67 -20 -90 -5 -24 -16 -68 -25 -98 -9 -30 -26 -98 -37 -150
-49 -222 -142 -400 -369 -705 -16 -22 -37 -53 -46 -70 -45 -82 -69 -84 -85 -7
-17 83 4 454 29 515 19 46 15 121 -9 151 -38 48 -139 20 -139 -39 0 -12 -7
-39 -15 -58 -8 -20 -15 -53 -15 -74 0 -35 -12 -93 -40 -202 -6 -25 -22 -65
-35 -90 -13 -25 -28 -57 -35 -71 -19 -42 -47 -91 -63 -108 -8 -9 -27 -39 -43
-67 -57 -101 -250 -355 -269 -355 -7 0 -15 15 -18 32 -8 53 4 191 20 220 7 15
15 49 17 75 5 51 14 92 26 108 4 6 10 39 14 74 3 34 13 84 23 110 l17 48 -28
36 c-24 31 -35 37 -70 39 -185 7 -226 2 -226 -26 0 -8 -6 -19 -14 -25 -8 -7
-16 -31 -19 -54 -3 -23 -10 -62 -17 -87 -15 -61 -40 -199 -40 -231 0 -14 -9
-44 -20 -67 -11 -22 -20 -45 -20 -51 0 -12 -103 -169 -127 -194 -30 -31 -37
-5 -25 90 13 95 44 285 73 453 10 58 21 139 24 180 3 41 9 93 15 115 24 100
31 142 30 173 0 18 6 56 14 85 28 100 35 132 42 192 3 33 12 69 19 80 6 11 15
45 18 75 6 51 26 130 62 240 8 25 20 72 26 105 6 33 17 72 25 87 8 15 14 42
14 59 0 33 5 54 34 144 l16 50 -37 32 c-40 35 -92 44 -111 21 -16 -20 -80
-218 -87 -268 -3 -25 -12 -61 -19 -80 -17 -44 -46 -154 -53 -200 -3 -19 -9
-39 -13 -45 -4 -5 -11 -29 -15 -52 -6 -41 -40 -131 -63 -168 -7 -11 -29 -54
-50 -95 -41 -83 -28 -78 -152 -67 -84 7 -125 -9 -174 -66 -25 -29 -59 -79 -76
-112 -31 -59 -40 -89 -85 -275 -12 -52 -30 -122 -39 -155 -10 -33 -17 -69 -17
-80 1 -41 -20 -130 -40 -174 -12 -25 -58 -104 -103 -174 -45 -70 -92 -149
-107 -175 -49 -91 -204 -293 -321 -419 -101 -109 -155 -156 -212 -185 -98 -50
-156 -46 -201 13 -66 87 -75 103 -75 129 0 15 -6 43 -14 61 -31 75 -54 297
-85 822 -7 109 -9 206 -6 216 8 26 -41 83 -69 79 -21 -3 -36 -27 -73 -118 -15
-37 -18 -71 -17 -195 1 -82 7 -168 13 -190 6 -22 11 -93 11 -159 0 -100 -2
-117 -15 -113 -17 7 -29 -8 -20 -23 5 -8 11 -8 20 0 10 8 14 2 19 -27 4 -21
11 -60 16 -88 5 -27 18 -99 27 -160 10 -60 26 -124 36 -142 9 -18 17 -38 17
-45 0 -16 40 -93 76 -145 43 -63 88 -93 162 -109 84 -18 103 -18 139 0 15 8
46 22 68 31 115 49 301 235 445 445 19 28 50 70 67 93 18 23 38 53 45 67 7 14
38 65 70 114 32 49 58 93 58 97 0 5 7 9 15 9 15 0 20 -14 29 -85 12 -87 35
-194 46 -216 7 -13 26 -37 41 -54 16 -16 29 -33 29 -37 0 -3 12 -11 27 -17 16
-6 35 -15 43 -19 52 -30 62 -33 93 -23 18 6 63 17 102 26 60 14 78 24 133 73
36 31 88 75 118 97 89 68 163 161 240 302 16 29 34 53 39 53 13 1 23 -66 24
-152 2 -112 60 -258 104 -258 66 0 197 120 282 259 25 40 54 82 108 156 32 43
72 104 87 135 31 62 56 88 70 74 4 -5 13 -36 19 -69 6 -33 17 -96 26 -140 10
-53 12 -87 6 -100 -32 -71 -34 -84 -14 -118 11 -18 23 -44 26 -59 4 -14 29
-44 56 -67 67 -56 111 -57 164 -3 33 34 37 44 37 89 0 38 -6 60 -26 88 -22 33
-25 46 -21 94 6 87 86 271 117 271 14 0 12 -19 -9 -86 -22 -71 -34 -136 -32
-186 0 -21 -3 -48 -8 -61 -7 -18 -3 -35 17 -72 40 -71 49 -74 109 -31 28 20
55 36 60 36 10 0 84 78 177 185 91 104 160 129 227 80 19 -13 52 -37 74 -52
22 -15 55 -40 73 -55 18 -15 44 -28 58 -28 14 0 42 -9 64 -20 31 -16 59 -20
130 -20 103 0 174 23 265 85 43 30 56 34 76 26 40 -15 138 40 210 117 56 60
69 78 130 194 15 27 30 50 34 51 4 1 24 -48 45 -109 20 -61 47 -127 58 -146
12 -20 22 -41 22 -48 0 -17 57 -81 89 -101 39 -24 85 -6 156 59 33 30 62 60
64 66 6 16 68 104 106 151 18 22 34 49 36 60 7 34 37 29 78 -12 21 -22 52 -45
70 -52 29 -12 37 -11 104 22 54 27 84 50 120 92 26 32 47 61 47 66 0 5 7 9 15
9 11 0 14 -7 10 -22 -3 -13 -10 -45 -15 -73 -5 -27 -18 -93 -30 -145 -47 -215
-54 -267 -53 -385 0 -140 10 -168 77 -213 63 -43 118 -42 162 2 19 19 35 48
39 69 11 57 4 65 -52 60 -67 -7 -83 10 -83 87 0 82 17 201 41 290 12 41 27 98
35 125 14 54 45 204 49 245 2 14 9 48 18 75 25 84 37 136 52 225 8 47 21 117
30 155 9 39 20 97 25 130 5 33 14 83 19 110 6 28 19 104 30 170 11 66 25 134
30 150 11 31 27 144 42 280 4 44 15 136 23 205 8 69 15 159 15 201 1 70 -1 77
-26 101 -42 40 -75 44 -108 15z m-2385 -577 c0 -39 -6 -84 -14 -102 -8 -18
-17 -49 -21 -69 -3 -19 -12 -44 -19 -55 -14 -18 -15 -18 -22 -1 -4 10 0 44 9
75 15 55 33 139 42 192 2 14 4 26 4 28 1 1 6 2 11 2 6 0 10 -30 10 -70z
m-2190 -855 c0 -3 -15 -30 -32 -60 -18 -31 -44 -77 -58 -103 -14 -26 -33 -48
-42 -50 -16 -3 -16 -1 -3 32 8 19 15 43 15 53 0 27 82 133 102 133 10 0 18 -2
18 -5z m135 -141 c5 -33 3 -76 -4 -107 -7 -29 -16 -83 -21 -121 -5 -38 -12
-76 -16 -85 -4 -9 -10 -34 -15 -56 -4 -22 -13 -60 -19 -85 -11 -46 -32 -155
-51 -270 -15 -86 -6 -243 16 -276 13 -20 14 -28 4 -40 -15 -18 -102 -44 -150
-44 -50 0 -95 50 -105 117 -3 26 -11 56 -16 66 -15 29 -10 290 8 373 14 72 67
175 141 278 40 56 82 119 90 136 4 8 14 26 23 40 9 14 32 49 51 77 19 29 39
53 46 53 7 0 14 -23 18 -56z"></path>
</g>
</svg>