<svg height="409pt" viewBox="0 -7 409.44 409" width="409pt" xmlns="http://www.w3.org/2000/svg"><path d="m10 157.613281h196.8125c4.617188 21.800781 23.863281 37.394531 46.144531 37.394531s41.527344-15.59375 46.144531-37.394531h100.339844c5.519532 0 10-4.476562 10-10 0-5.523437-4.480468-10-10-10h-100.339844c-4.617187-21.800781-23.863281-37.394531-46.144531-37.394531s-41.527343 15.59375-46.144531 37.394531h-196.8125c-5.523438 0-10 4.476563-10 10 0 5.523438 4.476562 10 10 10zm242.957031-37.394531c11.097657-.074219 21.140625 6.554688 25.4375 16.785156 4.300781 10.230469 2 22.042969-5.820312 29.914063-7.820313 7.875-19.617188 10.25-29.875 6.023437-10.257813-4.230468-16.953125-14.230468-16.953125-25.328125-.03125-15.070312 12.140625-27.324219 27.210937-27.394531zm0 0"/><path d="m10 57.613281h100.339844c4.617187 21.800781 23.859375 37.394531 46.144531 37.394531 22.28125 0 41.523437-15.59375 46.144531-37.394531h196.8125c5.519532 0 10-4.476562 10-10 0-5.523437-4.480468-10-10-10h-196.8125c-4.621094-21.800781-23.863281-37.394531-46.144531-37.394531-22.285156 0-41.527344 15.59375-46.144531 37.394531h-100.339844c-5.523438 0-10 4.476563-10 10 0 5.523438 4.476562 10 10 10zm146.484375-37.394531c11.09375-.074219 21.140625 6.554688 25.4375 16.785156 4.296875 10.230469 2 22.042969-5.820313 29.914063-7.820312 7.875-19.617187 10.25-29.875 6.023437-10.261718-4.230468-16.953124-14.230468-16.953124-25.328125-.035157-15.070312 12.136718-27.324219 27.210937-27.394531zm0 0"/><path d="m10 257.613281h100.339844c4.617187 21.800781 23.859375 37.394531 46.144531 37.394531 22.28125 0 41.523437-15.59375 46.144531-37.394531h196.8125c5.519532 0 10-4.476562 10-10 0-5.523437-4.480468-10-10-10h-196.8125c-4.621094-21.800781-23.863281-37.394531-46.144531-37.394531-22.285156 0-41.527344 15.59375-46.144531 37.394531h-100.339844c-5.523438 0-10 4.476563-10 10 0 5.523438 4.476562 10 10 10zm146.484375-37.394531c11.09375-.074219 21.140625 6.554688 25.4375 16.785156 4.296875 10.230469 2 22.042969-5.820313 29.914063-7.820312 7.875-19.617187 10.25-29.875 6.023437-10.261718-4.230468-16.953124-14.230468-16.953124-25.328125-.035157-15.070312 12.136718-27.324219 27.210937-27.394531zm0 0"/><path d="m10 357.613281h196.8125c4.617188 21.800781 23.863281 37.394531 46.144531 37.394531s41.527344-15.59375 46.144531-37.394531h100.339844c5.519532 0 10-4.476562 10-10 0-5.523437-4.480468-10-10-10h-100.339844c-4.617187-21.800781-23.863281-37.394531-46.144531-37.394531s-41.527343 15.59375-46.144531 37.394531h-196.8125c-5.523438 0-10 4.476563-10 10 0 5.523438 4.476562 10 10 10zm242.957031-37.394531c11.097657-.074219 21.140625 6.554688 25.4375 16.785156 4.300781 10.230469 2 22.042969-5.820312 29.914063-7.820313 7.875-19.617188 10.25-29.875 6.023437-10.257813-4.230468-16.953125-14.230468-16.953125-25.328125-.03125-15.070312 12.140625-27.324219 27.210937-27.394531zm0 0"/></svg>